<?xml version="1.0" encoding="UTF-8"?>
<svg id="Layer_2" data-name="Layer 2" xmlns="http://www.w3.org/2000/svg" viewBox="0 0 1947.12 2145.4">
  <defs>
    <style>
      .cls-1 {
        fill: #fff;
      }
    </style>
  </defs>
  <g id="Layer_1-2" data-name="Layer 1">
    <g>
      <path class="cls-1" d="M1725.47,2145.4H221.65c-53.53,0-97.09-43.55-97.09-97.09V626.49c0-53.53,43.55-97.09,97.09-97.09h1503.82c53.53,0,97.09,43.55,97.09,97.09v1421.82c0,53.53-43.55,97.09-97.09,97.09ZM221.65,609.4c-9.42,0-17.09,7.66-17.09,17.09v1421.82c0,9.42,7.67,17.09,17.09,17.09h1503.82c9.42,0,17.09-7.67,17.09-17.09V626.49c0-9.42-7.67-17.09-17.09-17.09H221.65Z"/>
      <path class="cls-1" d="M1360.27,1016.06c-89.76-103.71-267.6-100.93-357.93,2.46l-29.07,29.43-32.99-31.78c-89.65-103.47-262.2-105.29-352.65-2.32-90.26,103.18-82.6,266.62-4.11,381.49,23.65,34.73,112.12,166.12,389.11,335.95l3.55,1.9c278.24-168.29,362.32-301.12,386.36-335.52,79.24-114.43,87.57-277.95-2.27-381.62Z"/>
      <path class="cls-1" d="M966.3,568.25c-47.53,0-144.85-24.39-220.21-48.57-61.95-19.87-175.1-60.46-236.88-108.98-58.08-45.61-100.4-104.93-119.19-167.03-9.61-31.77-12.65-62.78-9.02-92.14,3.95-31.97,15.55-60.41,34.49-84.52C449.41,23.79,503.18,0,566.88,0c33.84,0,68.79,6.6,103.88,19.62,35.58,13.2,69.51,32.38,100.84,56.98,63.97,50.25,130.47,163.14,164.41,225.96,39.4,72.92,83.93,169.46,88.59,209.08,1.76,14.99-1.33,27.61-9.18,37.51-15.16,19.09-39.83,19.09-49.12,19.09ZM566.88,80c-38.62,0-70.04,12.93-88.48,36.41-20.16,25.66-24.35,62.63-11.81,104.09,14.07,46.52,46.75,91.72,92.02,127.28,37.95,29.81,115.19,64.69,211.91,95.72,66.82,21.44,125.47,35.41,163.16,41.4-12.7-32.95-35.64-84.25-67.69-143.63-52.87-97.96-105.28-171.49-143.81-201.75-48.16-37.83-104.76-59.52-155.3-59.52Z"/>
      <path class="cls-1" d="M985.8,568.25h0c-9.29,0-33.97,0-49.12-19.09-7.86-9.9-10.95-22.52-9.18-37.51,4.66-39.62,49.19-136.16,88.59-209.08,33.94-62.82,100.44-175.71,164.41-225.96,31.33-24.61,65.26-43.78,100.84-56.98,35.09-13.02,70.04-19.62,103.88-19.62,63.7,0,117.47,23.79,151.4,66.99,18.94,24.11,30.54,52.55,34.49,84.52,3.62,29.36.59,60.37-9.02,92.14-18.78,62.1-61.11,121.42-119.19,167.03-61.79,48.53-174.93,89.11-236.88,108.98-75.36,24.18-172.68,48.57-220.21,48.57ZM1385.22,80c-50.54,0-107.14,21.69-155.3,59.52-38.53,30.26-90.95,103.8-143.81,201.75-32.05,59.38-54.99,110.68-67.69,143.63,37.69-5.99,96.34-19.97,163.16-41.4,96.72-31.03,173.96-65.92,211.91-95.72,45.27-35.56,77.96-80.76,92.03-127.28,12.54-41.46,8.35-78.43-11.81-104.09-18.44-23.48-49.86-36.41-88.48-36.41Z"/>
      <path class="cls-1" d="M902.87,568.83c-.65,0-1.3-.02-1.96-.05-6.17-.3-153.24-7.86-336.6-57.95-108.13-29.54-206.39-67.84-292.06-113.85C163.81,338.74,75.23,267.85,8.96,186.29c-13.93-17.15-11.32-42.34,5.82-56.27,17.14-13.93,42.34-11.32,56.27,5.82,135.78,167.12,354.65,254.2,514.35,297.82,174.97,47.8,317.94,55.14,319.37,55.21,22.07,1.06,39.09,19.81,38.03,41.88-1.03,21.41-18.72,38.08-39.92,38.08Z"/>
      <path class="cls-1" d="M1015.95,561.76c-20.41,0-37.84-15.54-39.78-36.27-2.06-21.99,14.1-41.49,36.09-43.56h0c1.82-.17,184.49-17.55,383.41-57.16,115.92-23.09,214.48-49.06,292.94-77.21,116.62-41.84,166.56-80.84,187.92-106.19,14.23-16.89,39.47-19.05,56.36-4.81,16.89,14.23,19.05,39.47,4.81,56.36-40.88,48.52-113.62,91.06-222.37,130.04-82.26,29.49-184.76,56.53-304.68,80.39-202.89,40.36-389.07,58.05-390.93,58.23-1.27.12-2.53.18-3.78.18Z"/>
    </g>
  </g>
</svg>