<?xml version="1.0" encoding="UTF-8"?>
<svg id="OBJECTS" xmlns="http://www.w3.org/2000/svg" viewBox="0 0 775.07 607.27">
  <defs>
    <style>
      .cls-1 {
        fill: #fff;
      }

      .cls-2 {
        fill: #0f3119;
      }

      .cls-3 {
        fill: #113e29;
      }

      .cls-4 {
        fill: #0d2819;
      }

      .cls-5 {
        fill: #123f2a;
      }
    </style>
  </defs>
  <g>
    <path class="cls-3" d="M762.64,379.35c-.2,50.15-12.63,97.04-28.09,141.69-15.65,45.09-37.37,86.23-37.37,86.23l-173.44-.02-277.92-.04-161.07-.02c-14.63-19.11-27.49-39.63-38.3-61.32-5.75-11.5,2.77-25.02,15.63-25.02h57.86c4.35,0,8.28-1.76,11.15-4.6,2.84-2.87,4.59-6.81,4.59-11.17,0-8.32-6.48-15.16-14.67-15.7h-52.71c-.35,0-.69-.02-1.06-.04-8.22-.56-14.72-7.39-14.72-15.74,0-4.35,1.76-8.26,4.64-11.15,2.44-2.4,5.6-4.02,9.21-4.48.62-.05,1.29-.11,1.93-.11h30.53c3.6-.44,6.81-2.06,9.24-4.49,2.84-2.86,4.6-6.79,4.6-11.14,0-8.7-7.06-15.74-15.76-15.74H25.71c-9.06,0-16.56-6.95-17.34-15.96-.93-10.83-1.4-21.74-1.4-32.79.02-58.92,13.48-114.67,37.56-164.34,1.76-3.62,5.5-5.91,9.55-5.91h120.33c4.33,0,8.26-1.76,11.14-4.6,2.86-2.87,4.6-6.81,4.6-11.14,0-2.71-.67-5.24-1.89-7.46-2.46-4.57-7.11-7.77-12.52-8.24h-45.82c-.45,0-.89-.02-1.35-.05-8.06-.69-14.41-7.46-14.41-15.68,0-4.37,1.76-8.3,4.6-11.14,2.71-2.69,6.31-4.39,10.33-4.57.27-.04.55-.04.82-.04h78.59c4.02-.22,7.62-1.91,10.33-4.6,2.8-2.8,4.55-6.68,4.6-10.95.09-8.77-7.55-15.94-16.3-15.94h-65.99c-7.13,0-11.44-6.62-10.12-12.61.42-1.98,1.47-3.89,3.26-5.48C202.06,34.93,291.58-1.19,389.55.03c41.3.51,81.04,7.71,118.16,20.56,2.46.86,3.49,3,3.37,5.06-.16,2.44-1.98,4.75-5.06,4.75h-7.81c-8.86,0-16.58,7.26-16.45,16.14.05,4.29,1.82,8.19,4.66,11.03s6.86,4.66,11.24,4.66h74.46c7.08,0,14.05,1.16,20.65,3.44,5.9,2.02,11.48,4.91,16.5,8.66,32.28,23.96,60.61,52.91,83.88,85.7,5.2,7.33,10.15,14.87,14.83,22.58,3.49,5.73-.62,13.06-7.31,13.06h-37.37c-8.77,0-16.39,7.21-16.28,15.99.07,4.26,1.82,8.13,4.6,10.9,2.69,2.71,6.3,4.4,10.33,4.62h41.21c4.02.24,7.62,1.91,10.32,4.6,2.86,2.86,4.62,6.81,4.62,11.14,0,8.42-6.6,15.3-14.94,15.74-.27.02-.55.02-.82.02h-6.84c-8.32.4-14.94,7.3-14.94,15.72v.02c0,8.7,7.04,15.74,15.74,15.74h49.15c4.08,0,7.55,2.84,8.42,6.79,5.84,26.57,8.88,54.13,8.77,82.41h0Z"/>
    <path class="cls-2" d="M657.22,372.89c0,99.69-53.55,186.88-133.48,234.36l-277.92-.04c-79.9-47.49-133.43-134.65-133.43-234.32,0-62.19,20.83-119.53,55.95-165.4h6.06c4.33,0,8.26-1.76,11.14-4.6,2.86-2.87,4.6-6.81,4.6-11.14,0-2.71-.67-5.24-1.89-7.46,49.58-51.67,119.31-83.83,196.55-83.83,150.46,0,272.42,121.96,272.42,272.42h0Z"/>
    <circle class="cls-4" cx="384.81" cy="372.88" r="183.03"/>
    <path class="cls-5" d="M743.01,227.19h23.57c4.69,0,8.49,3.81,8.49,8.49v13.92c0,4.69-3.81,8.49-8.49,8.49h-23.57c-4.69,0-8.49-3.81-8.49-8.49v-13.92c0-4.69,3.81-8.49,8.49-8.49h0Z"/>
    <path class="cls-5" d="M83.57,176.24h-9.72c-8.83,0-15.98-7.16-15.98-15.98h0c0-8.83,7.16-15.98,15.98-15.98h9.72c8.83,0,15.98,7.16,15.98,15.98h0c0,8.83-7.16,15.98-15.98,15.98Z"/>
    <path class="cls-5" d="M25.71,491.02h-9.72c-8.83,0-15.99-7.16-15.99-15.98h0c0-8.83,7.16-15.99,15.98-15.99h9.72c8.83,0,15.98,7.16,15.98,15.98h0c0,8.83-7.16,15.98-15.98,15.98h0Z"/>
  </g>
  <g>
    <path class="cls-1" d="M189.27,271.79c.39-2.26.05-4.28-1.02-6.08-1.51-2.53-4.12-3.84-5.65-4.41-.11-2.51-.95-4.59-2.51-6.2-2.29-2.37-5.52-2.96-7.14-3.12-3.05-5.15-9.05-5.83-12.57-5.4-3.75-3.75-8.73-3.51-11.56-2.67-7.06-5.56-15.04-2.76-18.82-.13-4.23-.65-7.69.05-10.31,2.08-2.72,2.1-3.8,5.11-4.21,6.88-4.09.09-6.71,1.63-8.19,2.99-2.15,1.94-3.44,4.73-3.55,7.69-.14,3.73,2.26,7.35,3.19,8.62,0,3.73,1.13,6.78,3.37,9.05,2.96,3.01,7.05,3.84,9.2,4.07.48,3.1,2.42,10.29,10.31,12.94,5.49,1.85,9.73,1.11,11.92.43,1.63,4.02,6.17,15.27,7.19,18.02,1.29,3.42,3.44,4.46,4.28,4.75.3.16.65.29,1,.36,1.06.22,2.26-.05,3.39-.77,1.72-1.11,3.3-3.46,2.87-6.15-.23-1.49.39-3.39,1.04-4.82,2.56,1.86,6.58,2.65,9.66.99,3.01-1.63,3.84-4.68,4.02-6.81,2.33.56,6.13.84,9.73-1.49,4.41-2.85,4.3-8.12,3.93-10.72,1.94-.79,5.06-2.83,6.1-8.07,1.22-6.11-3.57-10.47-5.67-12.05v.02ZM191.85,283.23c-.97,4.95-4.34,5.86-4.95,6.01-7.85-.05-9.25-5.5-9.48-7.51,2.13-2.22,2.85-5.24,2.89-5.43.2-.84-.32-1.69-1.18-1.88-.81-.2-1.69.34-1.88,1.18,0,.05-1.13,4.59-4.36,5.25-3.48.72-6.81-2.21-6.85-2.22-.65-.57-1.63-.52-2.21.13-.57.65-.52,1.63.13,2.22.13.11,2.58,2.28,5.92,2.94,1.13.22,2.37.27,3.64.02.39-.09.75-.2,1.11-.34.75,2.85,2.89,7.26,8.98,8.48.65.13,1.36.2,2.12.25.27,1.9.43,5.75-2.51,7.67-3.8,2.44-7.94.95-8.8.61-4.32-3.33-1.77-8.57-1.67-8.78.38-.77.09-1.67-.66-2.08-.73-.41-1.69-.14-2.12.59-.05.11-1.51,2.47-6.38,1.77-5-.73-6.24-4.07-6.29-4.25-.27-.82-1.15-1.27-1.97-1-.82.25-1.29,1.13-1.02,1.97.07.22,1.79,5.38,8.84,6.38,2.38.34,4.23.11,5.63-.38-.14,2.6.59,5.58,3.32,7.91.05,1.22-.09,4.16-2.42,5.43-2.24,1.22-5.36.2-6.81-1.18.81-2.92.56-5.67.54-5.79-.09-.86-.86-1.49-1.74-1.4-.86.09-1.49.86-1.4,1.74.02.02.25,2.69-.59,5.16-.61.99-2.85,5-2.29,8.55.2,1.31-.59,2.46-1.47,3.01-.57.38-1.04.39-1.18.3s-.34-.18-.5-.22c-.05-.02-1.43-.43-2.33-2.89-1.25-3.37-7.55-18.86-7.8-19.51-.18-.41-.5-.74-.91-.88-.09-.04-.16-.05-.25-.07-.34-.07-.7-.02-1.02.14-.18.09-4.48,2.22-11.08,0-6.42-2.17-7.89-8-8.21-10.42,1.63-.79,4.36-2.69,6.01-7.08.93-2.49.74-4.77.07-6.65,2.49.75,5.49,1.25,7.87.38,5.32-1.92,5.49-6.47,5.49-6.67.02-.86-.66-1.56-1.52-1.58-.86-.04-1.58.65-1.63,1.51,0,.25-.22,2.64-3.41,3.8-2.92,1.06-8.39-1.24-10.24-2.21-.72-.38-1.61-.14-2.04.54-.45.68-.3,1.58.32,2.08.05.04,3.85,3.12,2.13,7.69-1.6,4.27-4.3,5.36-4.93,5.58-.95-.04-5.38-.36-8.18-3.23-1.7-1.74-2.53-4.16-2.46-7.21.13-.52.79-2.85,3.37-3.8.81-.3,1.22-1.2.93-2.03-.3-.81-1.22-1.22-2.03-.93-2.04.77-3.33,2.08-4.14,3.32-.74-1.38-1.4-3.1-1.34-4.68.07-2.12,1-4.12,2.51-5.49,1.76-1.6,4.28-2.33,7.31-2.15.86.05,1.61-.59,1.67-1.45,0-.04.32-3.85,3.24-6.11,2.03-1.58,4.88-2.03,8.5-1.38.43.09.9-.02,1.24-.29.36-.27,8.53-6.47,16.12.18.45.39,1.09.5,1.63.29.23-.11,5.74-2.29,9.52,2.13.36.45.95.65,1.51.52.3-.05,7.62-1.43,10.45,4.37.27.56.82.9,1.43.88.04,0,3.69.02,5.83,2.22,1.18,1.22,1.72,2.92,1.63,5.09-.04.75.47,1.42,1.2,1.6.04,0,3.39.86,4.89,3.35.79,1.33.93,2.89.43,4.75-.16.66.11,1.36.7,1.74.07.04,6.26,3.96,5.16,9.41l-.03.03Z"/>
    <path class="cls-1" d="M169.41,262c-4.18-3.83-8.43-2.91-11.05-1.33-.66-1.03-1.43-1.86-2.07-2.38-.68-.55-1.67-.44-2.21.23-.55.68-.44,1.67.24,2.21.04.03,3.4,2.8,1.93,6.07-.88,1.97-4.19,2.42-5.39,2.42-.51,0-.99.25-1.28.66-.29.42-.37.95-.2,1.43,0,.04,1.39,4.17-.36,6.82-2.68,4.07-7.83,2.12-8.05,2.04-.81-.31-1.71.08-2.04.88-.32.81.07,1.72.88,2.04.5.2,1.12.39,1.82.53,2.98.59,7.35.28,10.01-3.76,1.69-2.56,1.52-5.72,1.17-7.69,2.03-.35,5.06-1.33,6.3-4.09.71-1.58.77-3.1.48-4.47,1.31-.91,4.35-2.37,7.69.69.64.59,1.63.54,2.22-.1s.54-1.63-.1-2.22v.02Z"/>
  </g>
  <g>
    <path class="cls-1" d="M639.1,237.32c-4.65,0-8.42,3.77-8.42,8.42,0,.81.15,1.57.37,2.32l-4.9,2.36c-1.48-2.42-4.12-4.04-7.15-4.04-1.78,0-3.4.55-4.76,1.46l-8.23-7.23c.81-1.3,1.28-2.8,1.28-4.43,0-4.65-3.77-8.44-8.42-8.44s-8.42,3.79-8.42,8.44c0,1.9.66,3.62,1.72,5.05l-8.82,8.82c-1.32-.86-2.89-1.37-4.57-1.37-4.65,0-8.42,3.79-8.42,8.42s3.77,8.44,8.42,8.44,8.42-3.79,8.42-8.44c0-1.79-.57-3.46-1.54-4.81l8.89-8.91c1.26.77,2.73,1.23,4.32,1.23,1.85,0,3.55-.62,4.94-1.65l8.18,7.17c-.9,1.34-1.43,2.95-1.43,4.67,0,4.65,3.79,8.42,8.44,8.42s8.42-3.77,8.42-8.42c0-.46-.07-.91-.15-1.35l5.25-2.53c1.54,1.96,3.9,3.24,6.59,3.24,4.65,0,8.42-3.77,8.42-8.42s-3.77-8.42-8.42-8.42h-.01ZM578.77,262.32c-2.87,0-5.21-2.32-5.21-5.22s2.34-5.2,5.21-5.2,5.22,2.32,5.22,5.2-2.34,5.22-5.22,5.22ZM598.86,241.4c-2.87,0-5.22-2.34-5.22-5.21s2.34-5.22,5.22-5.22,5.22,2.34,5.22,5.22-2.34,5.21-5.22,5.21ZM618.99,260.01c-2.89,0-5.22-2.34-5.22-5.22s2.32-5.21,5.22-5.21,5.2,2.34,5.2,5.21-2.32,5.22-5.2,5.22ZM639.1,250.95c-2.87,0-5.22-2.34-5.22-5.22s2.34-5.22,5.22-5.22,5.21,2.34,5.21,5.22-2.34,5.22-5.21,5.22Z"/>
    <path class="cls-1" d="M650.57,296.99h-3.88v-32.61c0-.9-.73-1.61-1.61-1.61h-11.97c-.88,0-1.61.71-1.61,1.61v32.61h-4.94v-23.7c0-.88-.71-1.59-1.59-1.59h-11.97c-.9,0-1.61.71-1.61,1.59v23.7h-4.94v-41.13c0-.88-.73-1.61-1.61-1.61h-11.97c-.88,0-1.61.73-1.61,1.61v41.13h-4.94v-21.24c0-.9-.71-1.61-1.61-1.61h-11.97c-.88,0-1.59.71-1.59,1.61v21.24h-4.21c-.9,0-1.61.73-1.61,1.61s.71,1.61,1.61,1.61h83.62c.88,0,1.59-.71,1.59-1.61s-.71-1.61-1.59-1.61h0ZM583.12,296.99h-8.76v-19.65h8.76v19.65ZM603.23,296.99h-8.75v-39.52h8.75v39.52ZM623.36,296.99h-8.76v-22.09h8.76v22.09ZM643.47,296.99h-8.75v-31.02h8.75v31.02Z"/>
  </g>
  <g>
    <path class="cls-1" d="M681.32,362.54c-14.08,0-25.54,11.45-25.54,25.53s11.45,25.54,25.54,25.54,25.54-11.45,25.54-25.54-11.45-25.53-25.54-25.53ZM681.32,410.64c-12.45,0-22.57-10.12-22.57-22.57s10.12-22.59,22.57-22.59,22.59,10.14,22.59,22.59-10.12,22.57-22.59,22.57Z"/>
    <path class="cls-1" d="M681.32,355.39c-18.01,0-32.68,14.65-32.68,32.68,0,6.23,1.77,12.04,4.8,17.01l-15.72,15.7c-1.06,1.06-1.65,2.46-1.65,3.96s.59,2.9,1.65,3.96l2.09,2.09c1.09,1.09,2.53,1.63,3.94,1.63s2.86-.56,3.96-1.63l15.53-15.53c5.17,3.47,11.39,5.49,18.07,5.49,18.02,0,32.68-14.67,32.68-32.68s-14.65-32.68-32.68-32.68h0ZM645.63,428.7c-1.03,1.03-2.7,1.03-3.72,0l-2.09-2.09c-.51-.51-.77-1.16-.77-1.87s.27-1.36.77-1.87l15.29-15.29c1.65,2.21,3.55,4.19,5.71,5.93l-15.19,15.19ZM681.32,417.78c-7.02,0-13.48-2.46-18.58-6.55-.13-.12-.29-.24-.44-.35-.62-.52-1.23-1.08-1.82-1.65-.07-.07-.15-.13-.22-.2-.62-.64-1.23-1.3-1.8-1.99-.02-.03-.05-.07-.08-.1-.56-.67-1.08-1.38-1.57-2.11-.05-.07-.1-.12-.13-.19-3.2-4.73-5.07-10.44-5.07-16.57,0-16.39,13.32-29.73,29.71-29.73s29.73,13.34,29.73,29.73-13.34,29.71-29.73,29.71Z"/>
    <path class="cls-1" d="M682.57,386.15c-3.6-1.5-5.14-2.58-5.14-4.72,0-1.65,1.2-3.55,4.38-3.55,1.99,0,3.44.51,4.4.98.45.2.99-.02,1.16-.49l.42-1.09c.15-.42-.03-.89-.44-1.09-1.15-.56-2.64-1.01-4.67-1.08v-3.13c0-.49-.39-.86-.86-.86h-.84c-.47,0-.86.37-.86.86v3.3c-3.81.62-6.25,3.23-6.25,6.65,0,3.6,2.61,5.51,6.82,7.16,3.07,1.23,4.67,2.64,4.67,4.92s-1.97,4.04-4.92,4.04c-1.9,0-3.71-.52-5.1-1.26-.45-.25-1.01-.02-1.2.47l-.4,1.15c-.13.37,0,.81.35,1.01,1.47.84,3.64,1.41,5.73,1.45v3.32c0,.47.39.86.88.86h.88c.47,0,.86-.39.86-.86v-3.44c4.26-.71,6.54-3.76,6.54-7.02,0-3.69-2.16-5.83-6.4-7.56v-.02Z"/>
  </g>
  <path class="cls-1" d="M216.92,446.13l-13.92-23.47c1.11-1.14,1.66-2.66,1.58-4.18-.05-.84-.3-1.69-.76-2.48l-9.15-15.41c-1.55-2.62-4.91-3.47-7.52-1.92l-18.74,11.12-4.16-6.99c-1.38-2.36-4.43-3.13-6.79-1.74l-16.34,9.69c-2.34,1.39-3.12,4.44-1.74,6.79l4.16,6.99-18.76,11.12c-2.6,1.52-3.47,4.91-1.92,7.52l9.15,15.41c1.25,2.14,3.82,3.15,6.2,2.48l13.92,23.46c1.66,2.78,5.23,3.69,7.99,2.04l54.76-32.48c2.78-1.63,3.69-5.23,2.04-7.98v.02ZM142.74,415.55c-.29-.49-.13-1.14.36-1.43l16.34-9.7c.49-.29,1.14-.13,1.43.36l4.14,6.99-18.13,10.76-4.14-6.99h0ZM137.16,457.32c-.71.19-1.42-.1-1.79-.7l-9.15-15.43c-.44-.74-.19-1.72.55-2.15l62.39-37c.74-.44,1.72-.19,2.15.55l9.15,15.43c.36.6.26,1.4-.24,1.9l-19.95,20.35-.63-1.05c-1.11-1.87-3.52-2.49-5.39-1.39l-8.93,5.3c-1.87,1.11-2.48,3.53-1.37,5.38l.61,1.06-27.4,7.76v-.02ZM179.52,446.71l-8.93,5.3s-.02,0-.01-.03l-3.25-5.52,8.95-5.29,3.25,5.52h0ZM212.89,450.73l-54.77,32.5c-.91.53-2.07.24-2.62-.67l-13.38-22.57,24.49-6.95.57.97c1.11,1.86,3.53,2.48,5.4,1.37l8.93-5.29c1.87-1.11,2.48-3.53,1.37-5.4l-.57-.94,17.84-18.19,13.39,22.56c.53.91.24,2.09-.67,2.62h.02Z"/>
  <g>
    <path class="cls-1" d="M525.27,111.1c-2.61-5.7-7.26-10.05-13.13-12.23-5.84-2.19-12.21-1.96-17.91.65s-10.03,7.26-12.23,13.13c-2.19,5.88-1.96,12.28.68,18,.9,1.92,1.58,5.03,1.2,6.89l-.68,3.36c-.68.29-1.26.81-1.55,1.55l-.14.41c-.31.83-.14,1.67.29,2.36l-2.8,7.55c-1.19,3.15.43,6.67,3.58,7.84l.88.34c.09.61.32,1.24.72,1.82.7,1.08,1.85,1.94,3.24,2.46.83.31,1.67.47,2.5.47.52,0,1.06-.07,1.55-.22.68-.18,1.28-.49,1.74-.9l.86.32c.7.25,1.42.38,2.14.38.86,0,1.73-.18,2.54-.56,1.47-.67,2.61-1.89,3.18-3.42l2.8-7.5c.13-.04.25-.07.36-.13.67-.31,1.15-.83,1.4-1.51l.16-.41c.25-.67.22-1.4-.07-2.05-.02-.05-.07-.07-.09-.13l1.69-2.98c.93-1.65,3.51-3.54,5.43-4.42,5.74-2.59,10.1-7.26,12.3-13.16,2.19-5.84,1.96-12.21-.65-17.91h.01ZM498.63,160.08c-.23.63-.72,1.15-1.35,1.44-.63.29-1.33.31-1.96.07l-11.49-4.3c-.65-.23-1.15-.7-1.44-1.33s-.32-1.33-.07-1.98l2.61-6.99,16.31,6.1-2.61,6.99h0ZM496.34,117.27c.77-.13,1.42-.43,1.94-.7.81-.4,1.17-.56,1.78-.32.61.22.77.58,1.13,1.4.38.95.99,2.37,2.82,3.06,1.83.68,3.22,0,4.14-.45.83-.4,1.17-.56,1.78-.32.59.22.77.56,1.11,1.4.23.56.54,1.19,1.02,1.78-9.46,10.59-13.72,19.1-15.07,22.17l-3.78-1.4c.97-3.22,3.33-12.46,3.11-26.61h.02ZM522.61,127.79c-1.87,5-5.57,8.97-10.45,11.17-2.48,1.11-5.61,3.38-7.05,5.9l-1.6,2.86-2.89-1.08c1.47-3.22,6.17-12.39,16.51-23.32.72-.77.7-2-.07-2.72-.77-.74-2-.7-2.72.07-.07.07-.14.14-.2.22-.11-.18-.22-.41-.34-.7-.41-.99-.99-2.37-2.82-3.06-1.83-.68-3.16-.02-4.14.47-.81.4-1.17.56-1.78.32-.61-.23-.77-.58-1.13-1.42-.41-1.01-.99-2.36-2.82-3.04-1.83-.7-3.16-.04-4.15.45-.27.14-.5.23-.7.31v-.29c-.05-1.06-.95-1.87-2.01-1.83s-1.89.93-1.83,2c.65,14.98-1.82,25.05-2.8,28.43l-2.88-1.06.65-3.22c.58-2.82-.32-6.6-1.47-9.06-2.23-4.85-2.45-10.28-.58-15.3,3.83-10.28,15.32-15.52,25.59-11.69,10.3,3.83,15.55,15.32,11.71,25.6h-.03Z"/>
    <path class="cls-1" d="M513.36,95.64c.25.09.51.14.77.14.31,0,.62-.07.91-.2.53-.24.94-.68,1.14-1.23l3.3-8.86c.21-.55.19-1.15-.06-1.68-.24-.53-.68-.94-1.23-1.15s-1.15-.18-1.68.06c-.53.24-.94.68-1.14,1.23l-3.3,8.86c-.21.55-.19,1.15.06,1.68.24.53.68.94,1.23,1.15Z"/>
    <path class="cls-1" d="M488.32,94.25c.24.55.68.97,1.25,1.18.25.09.51.14.77.14.3,0,.59-.06.87-.18.54-.23.95-.66,1.17-1.21.21-.55.2-1.14-.03-1.68l-3.67-8.44c-.23-.54-.66-.95-1.21-1.17-.55-.21-1.15-.2-1.68.03-1.11.48-1.62,1.78-1.14,2.89l3.67,8.44Z"/>
    <path class="cls-1" d="M475.49,112.73c.31,0,.62-.07.91-.2.53-.24.94-.68,1.14-1.23.21-.55.19-1.15-.06-1.68-.24-.53-.68-.94-1.23-1.15l-9.6-3.58c-1.13-.42-2.4.16-2.83,1.29-.42,1.13.16,2.4,1.29,2.82l9.6,3.58c.25.09.51.14.77.14h0Z"/>
    <path class="cls-1" d="M477.91,132.05c-.5-1.1-1.82-1.58-2.91-1.06l-8.45,3.94c-1.1.5-1.58,1.82-1.06,2.91.25.52.68.93,1.2,1.13h.02c.25.09.5.14.77.14.31,0,.63-.07.92-.22l8.45-3.94c1.1-.52,1.58-1.82,1.06-2.91h0Z"/>
    <path class="cls-1" d="M531.48,111.06c.25.09.51.14.77.14.32,0,.65-.07.95-.21l8.3-3.98c.53-.25.93-.7,1.12-1.25s.16-1.15-.09-1.68c-.52-1.09-1.84-1.55-2.93-1.03l-8.3,3.98c-1.09.52-1.56,1.83-1.03,2.93.25.51.68.91,1.21,1.1Z"/>
    <path class="cls-1" d="M543.83,134.36c-.25-.53-.68-.94-1.23-1.14l-9.6-3.58c-.55-.21-1.15-.18-1.68.06-.53.25-.94.68-1.14,1.23-.21.55-.19,1.15.06,1.68.24.53.68.94,1.23,1.15l9.6,3.58c.25.09.51.14.77.14.31,0,.62-.07.91-.2.53-.24.94-.68,1.15-1.23.2-.55.18-1.15-.06-1.68h-.01Z"/>
    <path class="cls-1" d="M523.03,155.98l-3.81-8.5c-.23-.54-.67-.95-1.22-1.17-.54-.2-1.15-.18-1.67.05-1.11.49-1.6,1.8-1.11,2.89l3.81,8.52c.23.54.68.95,1.24,1.15.25.11.5.14.77.14.31,0,.59-.07.88-.2.54-.23.95-.67,1.15-1.22.22-.54.2-1.13-.04-1.67h0Z"/>
  </g>
  <g>
    <path class="cls-1" d="M272.83,115.99c.82-.34,1.22-1.28.89-2.1l-2.17-5.34c-.34-.82-1.28-1.22-2.1-.89s-1.22,1.28-.89,2.1l2.17,5.34c.34.82,1.28,1.22,2.1.89Z"/>
    <path class="cls-1" d="M306.55,124.99c-.86-2.11-3.27-3.13-5.41-2.26l-.85.35c-2.21-5.06-10.41-20.54-28.62-21.33l-.96-2.34c5.72-6.09,7.8-12.93,8.15-19.04.04-.18.06-.37.04-.59.29-6.95-1.58-12.91-2.59-15.63l.86-.35c2.11-.86,3.13-3.27,2.26-5.39-.86-2.11-3.27-3.13-5.39-2.26l-43.9,17.86c-2.12.86-3.13,3.27-2.26,5.39.86,2.11,3.27,3.14,5.39,2.28l.88-.37c1.14,2.67,3.99,8.24,9.07,13.02.11.15.24.26.39.37,4.52,4.12,10.78,7.58,19.13,7.95l.96,2.35c-12.49,13.28-7.52,30.07-5.57,35.24l-.86.35c-2.12.86-3.15,3.27-2.28,5.39.86,2.12,3.27,3.14,5.39,2.28l43.9-17.88c2.12-.86,3.13-3.27,2.28-5.39h-.01ZM232.06,78.68c-.46.18-.99-.04-1.2-.5-.18-.46.06-.99.51-1.18l43.88-17.88c.46-.18.99.06,1.18.5.2.46-.04.99-.5,1.2l-43.88,17.86h.01ZM237.1,80.11l36.21-14.75c.92,2.37,2.54,7.49,2.41,13.54l-30.93,12.6c-4.3-4.23-6.69-9.05-7.69-11.38h0ZM266.73,106.5c.46-.44.61-1.14.35-1.77l-1.75-4.29c-.24-.61-.83-.99-1.47-1.01-6.93-.07-12.27-2.45-16.31-5.59l27.86-11.33c-.74,5.09-2.85,10.5-7.72,15.36-.44.48-.59,1.16-.35,1.77l1.75,4.29c.26.61.83,1.01,1.49,1.03,17.29.17,24.77,14.66,26.74,19.31l-.9.37-21.28-5.59c-.72-.17-1.47.13-1.82.75l-10.78,18.63-1.43.59c-1.8-4.71-6.47-20.45,5.63-32.52h-.01ZM291.45,126.66l-24.04,9.78,8.07-13.94,15.96,4.16h.01ZM303.05,127.4l-43.9,17.86c-.46.18-.99-.04-1.18-.5s.04-.99.5-1.18l43.9-17.88c.46-.18.99.06,1.18.5.18.46-.04.99-.5,1.2h0Z"/>
  </g>
  <g>
    <path class="cls-1" d="M120.8,213.23l-2.41,4.42c-.25.46-.63.84-1.09,1.09l-4.42,2.41c-1.9,1.04-1.9,3.76,0,4.8l4.42,2.41c.46.25.84.63,1.09,1.09l2.41,4.42c1.04,1.9,3.76,1.9,4.8,0l2.41-4.42c.25-.46.63-.84,1.09-1.09l4.42-2.41c1.9-1.04,1.9-3.76,0-4.8l-4.83-2.64c-.19-.1-.34-.25-.44-.44l-2.64-4.83c-1.04-1.9-3.76-1.9-4.8,0h0Z"/>
    <path class="cls-1" d="M284.48,149.08l-1.21,2.22c-.13.23-.32.42-.55.55l-2.22,1.21c-.95.52-.95,1.89,0,2.41l2.22,1.21c.23.13.42.32.55.55l1.21,2.22c.52.95,1.89.95,2.41,0l1.21-2.22c.13-.23.32-.42.55-.55l2.22-1.21c.95-.52.95-1.89,0-2.41l-2.43-1.33c-.09-.05-.17-.13-.22-.22l-1.33-2.43c-.52-.95-1.89-.95-2.41,0h0Z"/>
    <path class="cls-1" d="M260.11,270.15l-1.21,2.22c-.13.23-.32.42-.55.55l-2.22,1.21c-.95.52-.95,1.89,0,2.41l2.22,1.21c.23.13.42.32.55.55l1.21,2.22c.52.95,1.89.95,2.41,0l1.21-2.22c.13-.23.32-.42.55-.55l2.22-1.21c.95-.52.95-1.89,0-2.41l-2.43-1.33c-.09-.05-.17-.13-.22-.22l-1.33-2.43c-.52-.95-1.89-.95-2.41,0Z"/>
    <path class="cls-1" d="M291.98,392.71l-1.21,2.22c-.13.23-.32.42-.55.55l-2.22,1.21c-.95.52-.95,1.89,0,2.41l2.22,1.21c.23.13.42.32.55.55l1.21,2.22c.52.95,1.89.95,2.41,0l1.21-2.22c.13-.23.32-.42.55-.55l2.22-1.21c.95-.52.95-1.89,0-2.41l-2.43-1.33c-.09-.05-.17-.13-.22-.22l-1.33-2.43c-.52-.95-1.89-.95-2.41,0Z"/>
    <path class="cls-1" d="M587.8,119.55l-1.21,2.22c-.13.23-.32.42-.55.55l-2.22,1.21c-.95.52-.95,1.89,0,2.41l2.22,1.21c.23.13.42.32.55.55l1.21,2.22c.52.95,1.89.95,2.41,0l1.21-2.22c.13-.23.32-.42.55-.55l2.22-1.21c.95-.52.95-1.89,0-2.41l-2.43-1.33c-.09-.05-.17-.13-.22-.22l-1.33-2.43c-.52-.95-1.89-.95-2.41,0Z"/>
    <path class="cls-1" d="M449.38,167.28l-1.21,2.22c-.13.23-.32.42-.55.55l-2.22,1.21c-.95.52-.95,1.89,0,2.41l2.22,1.21c.23.13.42.32.55.55l1.21,2.22c.52.95,1.89.95,2.41,0l1.21-2.22c.13-.23.32-.42.55-.55l2.22-1.21c.95-.52.95-1.89,0-2.41l-2.43-1.33c-.09-.05-.17-.13-.22-.22l-1.33-2.43c-.52-.95-1.89-.95-2.41,0h0Z"/>
    <path class="cls-1" d="M615.31,204.56l-1.7,3.1c-.18.32-.44.59-.76.76l-3.1,1.7c-1.33.73-1.33,2.64,0,3.37l3.1,1.7c.32.18.59.44.76.76l1.7,3.1c.73,1.33,2.64,1.33,3.37,0l1.7-3.1c.18-.32.44-.59.76-.76l3.1-1.7c1.33-.73,1.33-2.64,0-3.37l-3.4-1.86c-.13-.07-.24-.18-.31-.31l-1.86-3.4c-.73-1.33-2.64-1.33-3.37,0h.01Z"/>
    <path class="cls-1" d="M543.72,341.43l-1.53,2.8c-.16.29-.4.53-.69.69l-2.8,1.53c-1.2.66-1.2,2.38,0,3.04l2.8,1.53c.29.16.53.4.69.69l1.53,2.8c.66,1.2,2.38,1.2,3.04,0l1.53-2.8c.16-.29.4-.53.69-.69l2.8-1.53c1.2-.66,1.2-2.38,0-3.04l-3.06-1.67c-.12-.06-.21-.16-.28-.28l-1.67-3.06c-.66-1.2-2.38-1.2-3.04,0h-.01Z"/>
    <path class="cls-1" d="M397.05,64.11l-1.7,3.1c-.18.32-.44.59-.76.76l-3.1,1.7c-1.33.73-1.33,2.64,0,3.37l3.1,1.7c.32.18.59.44.76.76l1.7,3.1c.73,1.33,2.64,1.33,3.37,0l1.7-3.1c.18-.32.44-.59.76-.76l3.1-1.7c1.33-.73,1.33-2.64,0-3.37l-3.4-1.86c-.13-.07-.24-.18-.31-.31l-1.86-3.4c-.73-1.33-2.64-1.33-3.37,0h0Z"/>
    <path class="cls-1" d="M690.49,448.2l1.85,3.38c.19.35.48.64.83.83l3.38,1.85c1.45.79,1.45,2.87,0,3.67l-3.38,1.85c-.35.19-.64.48-.83.83l-1.85,3.38c-.79,1.45-2.87,1.45-3.67,0l-1.85-3.38c-.19-.35-.48-.64-.83-.83l-3.38-1.85c-1.45-.79-1.45-2.87,0-3.67l3.7-2.02c.14-.08.26-.19.34-.34l2.02-3.69c.79-1.45,2.87-1.45,3.67,0h0Z"/>
    <path class="cls-1" d="M160.24,329.93l1.85,3.38c.19.35.48.64.83.83l3.38,1.85c1.45.79,1.45,2.87,0,3.67l-3.38,1.85c-.35.19-.64.48-.83.83l-1.85,3.38c-.79,1.45-2.87,1.45-3.67,0l-1.85-3.38c-.19-.35-.48-.64-.83-.83l-3.38-1.85c-1.45-.79-1.45-2.87,0-3.67l3.7-2.02c.14-.08.26-.19.34-.34l2.02-3.7c.79-1.45,2.87-1.45,3.67,0h0Z"/>
  </g>
</svg>