<?xml version="1.0" encoding="UTF-8"?>
<svg xmlns="http://www.w3.org/2000/svg" xmlns:xlink="http://www.w3.org/1999/xlink" viewBox="0 0 230.68 254.34">
  <defs>
    <style>
      .cls-1 {
        fill: #fff;
      }

      .cls-2 {
        fill: #eeeff1;
      }

      .cls-3 {
        fill: #262626;
      }

      .cls-4 {
        fill: #d1d2d4;
      }

      .cls-5 {
        isolation: isolate;
      }

      .cls-6 {
        mix-blend-mode: multiply;
      }

      .cls-7 {
        fill: #00f1ff;
      }

      .cls-8 {
        fill: url(#linear-gradient);
      }

      .cls-9 {
        clip-path: url(#clippath);
      }
    </style>
    <linearGradient id="linear-gradient" x1="0" y1="127.17" x2="230.68" y2="127.17" gradientUnits="userSpaceOnUse">
      <stop offset=".12" stop-color="#0e392a"/>
      <stop offset="1" stop-color="#045c40"/>
    </linearGradient>
    <clipPath id="clippath">
      <path class="cls-8" d="M115.34,0C51.64,0,0,51.64,0,115.34c0,25.47,8.26,49.01,22.25,68.1,0,0,13.09,32.77-11.91,70.76,20.43,1.92,48.79-16.5,66.64-30.06,12,4.23,24.91,6.54,38.36,6.54,63.7,0,115.34-51.64,115.34-115.34S179.04,0,115.34,0Z"/>
    </clipPath>
  </defs>
  <g class="cls-5">
    <g id="Layer_2" data-name="Layer 2">
      <g id="Layer_1-2" data-name="Layer 1">
        <g>
          <path class="cls-8" d="M115.34,0C51.64,0,0,51.64,0,115.34c0,25.47,8.26,49.01,22.25,68.1,0,0,13.09,32.77-11.91,70.76,20.43,1.92,48.79-16.5,66.64-30.06,12,4.23,24.91,6.54,38.36,6.54,63.7,0,115.34-51.64,115.34-115.34S179.04,0,115.34,0Z"/>
          <g class="cls-9">
            <g>
              <path class="cls-1" d="M115.34,61.14c-44.2,0-80.03,8.8-80.03,71.94,0,24.83,20.13,44.96,44.96,44.96h70.14c24.83,0,44.96-20.13,44.96-44.96,0-63.14-35.83-71.94-80.03-71.94Z"/>
              <path class="cls-1" d="M115.34,61.14c-44.2,0-80.03,8.8-80.03,71.94,0,24.83,20.13,44.96,44.96,44.96h70.14c24.83,0,44.96-20.13,44.96-44.96,0-63.14-35.83-71.94-80.03-71.94Z"/>
              <path class="cls-2" d="M159.6,147.64h-88.52c-26.55,0-29.5-14.45-34.41-33.96-.88,5.82-1.36,12.24-1.36,19.4,0,24.83,20.13,44.96,44.96,44.96h70.14c24.83,0,44.96-20.13,44.96-44.96,0-7.15-.48-13.57-1.36-19.4-4.91,19.51-7.86,33.96-34.41,33.96Z"/>
              <path d="M153.47,140.17h-74.78c-20.79,0-28.64-8.12-28.64-20.35s12.05-23.95,34.86-23.95h62.34c22.81,0,34.86,11.72,34.86,23.95s-7.86,20.35-28.65,20.35Z"/>
              <path class="cls-3" d="M115.34,121.67c24.81,0,47.77-1.79,66.5-4.82-1.79-11.09-13.63-20.98-34.59-20.98h-62.34c-21.1,0-32.97,10.02-34.64,21.21,18.47,2.89,40.89,4.59,65.07,4.59Z"/>
              <g>
                <path class="cls-7" d="M88.18,132.21c-7.9,0-14.32-6.42-14.32-14.32s6.42-14.32,14.32-14.32,14.32,6.42,14.32,14.32-6.42,14.32-14.32,14.32ZM88.18,107.18c-5.91,0-10.72,4.81-10.72,10.72s4.81,10.72,10.72,10.72,10.72-4.81,10.72-10.72-4.81-10.72-10.72-10.72Z"/>
                <path d="M95.19,117.9c0,3.87-3.14,7.01-7.01,7.01s-7.01-3.14-7.01-7.01,3.14-7.01,7.01-7.01,7.01,3.14,7.01,7.01Z"/>
                <path class="cls-1" d="M88.66,115.08c0,1.62-1.31,2.94-2.94,2.94s-2.94-1.32-2.94-2.94,1.32-2.94,2.94-2.94,2.94,1.31,2.94,2.94Z"/>
              </g>
              <g>
                <path class="cls-7" d="M142.5,132.21c-7.89,0-14.32-6.42-14.32-14.32s6.42-14.32,14.32-14.32,14.32,6.42,14.32,14.32-6.42,14.32-14.32,14.32ZM142.5,107.18c-5.91,0-10.72,4.81-10.72,10.72s4.81,10.72,10.72,10.72,10.72-4.81,10.72-10.72-4.8-10.72-10.72-10.72Z"/>
                <path d="M135.49,117.9c0,3.87,3.14,7.01,7.01,7.01s7.01-3.14,7.01-7.01-3.14-7.01-7.01-7.01-7.01,3.14-7.01,7.01Z"/>
                <path class="cls-1" d="M142.02,115.08c0,1.62,1.31,2.94,2.94,2.94s2.94-1.32,2.94-2.94-1.31-2.94-2.94-2.94-2.94,1.31-2.94,2.94Z"/>
              </g>
              <g class="cls-6">
                <path d="M115.34,165.38c-8.86,0-16.89-3.28-20.96-8.56-.91-1.18-.69-2.87.49-3.78,1.18-.91,2.87-.7,3.78.49,3.03,3.92,9.57,6.46,16.69,6.46s13.66-2.53,16.68-6.46c.91-1.18,2.6-1.4,3.79-.49,1.18.91,1.4,2.6.49,3.78-4.07,5.28-12.1,8.56-20.96,8.56Z"/>
              </g>
              <path class="cls-2" d="M115.34,271.56c-15.44,0-32.01-15.58-37.02-34.8l-4.83-18.52c-5.01-19.22,7.03-34.8,26.9-34.8h29.9c19.86,0,31.91,15.58,26.9,34.8l-4.83,18.52c-5.01,19.22-21.59,34.8-37.02,34.8Z"/>
              <path class="cls-2" d="M115.34,72.96c19.51,0,37.44-.95,51.68-2.53-13.95-7.53-31.97-9.3-51.68-9.3s-37.73,1.77-51.68,9.3c14.23,1.58,32.17,2.53,51.68,2.53Z"/>
              <path class="cls-4" d="M134.16,62.42c0,2.68-2.17,4.85-4.85,4.85h-27.94c-2.68,0-4.85-2.17-4.85-4.85h0c0-2.68,2.17-4.85,4.85-4.85h27.94c2.68,0,4.85,2.17,4.85,4.85h0Z"/>
              <rect class="cls-4" x="113.54" y="34.97" width="3.59" height="22.6"/>
              <path class="cls-1" d="M124.72,34.97c0,5.18-4.2,9.39-9.38,9.39s-9.39-4.21-9.39-9.39,4.2-9.39,9.39-9.39,9.38,4.2,9.38,9.39Z"/>
              <path class="cls-2" d="M115.34,40.8c4.57,0,8.37-3.27,9.21-7.61.11.58.18,1.17.18,1.78,0,5.18-4.2,9.39-9.38,9.39s-9.39-4.21-9.39-9.39c0-.61.07-1.2.18-1.78.83,4.33,4.63,7.61,9.21,7.61Z"/>
              <path class="cls-2" d="M101.37,59.98h27.94c2.26,0,4.15,1.56,4.68,3.65.1-.39.17-.78.17-1.2,0-2.68-2.17-4.85-4.85-4.85h-27.94c-2.68,0-4.85,2.17-4.85,4.85,0,.42.07.82.17,1.2.54-2.09,2.42-3.65,4.68-3.65Z"/>
            </g>
            <path class="cls-1" d="M158.54,212.63c-2.89,0-5.59-1.8-6.61-4.68-1.27-3.63.62-7.61,4.24-8.9.32-.12,12.63-4.93,25.04-22.13,2.26-3.13,6.63-3.84,9.77-1.58,3.13,2.26,3.84,6.64,1.58,9.77-15.28,21.19-31.04,26.9-31.71,27.13-.77.27-1.55.4-2.32.4Z"/>
            <path class="cls-1" d="M81.57,189.6c7.92,2.27,20.1,3.73,33.77,3.73s25.86-1.46,33.77-3.73c-4.79-3.88-11.23-6.16-18.82-6.16h-29.9c-7.59,0-14.03,2.28-18.82,6.16Z"/>
          </g>
        </g>
      </g>
    </g>
  </g>
</svg>